<mxfile>
    <diagram id="d-bmqESFF2isHBAvMT5q" name="系统架构">
        <mxGraphModel dx="2590" dy="1160" grid="1" gridSize="10" guides="1" tooltips="1" connect="1" arrows="1" fold="1" page="1" pageScale="1" pageWidth="850" pageHeight="1100" math="0" shadow="0">
            <root>
                <mxCell id="0"/>
                <mxCell id="1" parent="0"/>
                <mxCell id="_07QkbmZMjeE6vpycuWQ-5" style="edgeStyle=orthogonalEdgeStyle;rounded=0;orthogonalLoop=1;jettySize=auto;html=1;entryX=0;entryY=0.5;entryDx=0;entryDy=0;" edge="1" parent="1" source="2" target="_07QkbmZMjeE6vpycuWQ-4">
                    <mxGeometry relative="1" as="geometry"/>
                </mxCell>
                <mxCell id="_07QkbmZMjeE6vpycuWQ-6" style="edgeStyle=orthogonalEdgeStyle;rounded=0;orthogonalLoop=1;jettySize=auto;html=1;" edge="1" parent="1" source="2" target="_07QkbmZMjeE6vpycuWQ-3">
                    <mxGeometry relative="1" as="geometry"/>
                </mxCell>
                <mxCell id="_07QkbmZMjeE6vpycuWQ-7" style="edgeStyle=orthogonalEdgeStyle;rounded=0;orthogonalLoop=1;jettySize=auto;html=1;entryX=0;entryY=0.5;entryDx=0;entryDy=0;" edge="1" parent="1" source="2" target="_07QkbmZMjeE6vpycuWQ-2">
                    <mxGeometry relative="1" as="geometry"/>
                </mxCell>
                <mxCell id="2" value="系统架构" style="rounded=1;whiteSpace=wrap;html=1;" parent="1" vertex="1">
                    <mxGeometry x="200" y="510" width="120" height="60" as="geometry"/>
                </mxCell>
                <mxCell id="_07QkbmZMjeE6vpycuWQ-2" value="规划" style="rounded=1;whiteSpace=wrap;html=1;" vertex="1" parent="1">
                    <mxGeometry x="380" y="610" width="120" height="60" as="geometry"/>
                </mxCell>
                <mxCell id="_07QkbmZMjeE6vpycuWQ-3" value="模式" style="rounded=1;whiteSpace=wrap;html=1;" vertex="1" parent="1">
                    <mxGeometry x="380" y="510" width="120" height="60" as="geometry"/>
                </mxCell>
                <mxCell id="_07QkbmZMjeE6vpycuWQ-4" value="构件" style="rounded=1;whiteSpace=wrap;html=1;" vertex="1" parent="1">
                    <mxGeometry x="380" y="400" width="120" height="60" as="geometry"/>
                </mxCell>
            </root>
        </mxGraphModel>
    </diagram>
    <diagram id="GDFoQel48l6Rueoln8uu" name="软件架构">
        <mxGraphModel dx="2590" dy="1160" grid="1" gridSize="10" guides="1" tooltips="1" connect="1" arrows="1" fold="1" page="1" pageScale="1" pageWidth="850" pageHeight="1100" math="0" shadow="0">
            <root>
                <mxCell id="BqG8JKaF9QAYTt6Hr9BY-0"/>
                <mxCell id="BqG8JKaF9QAYTt6Hr9BY-1" parent="BqG8JKaF9QAYTt6Hr9BY-0"/>
                <mxCell id="6Vs1qo5ZA1MxRJNfFTYf-0" style="edgeStyle=orthogonalEdgeStyle;rounded=0;orthogonalLoop=1;jettySize=auto;html=1;entryX=0;entryY=0.5;entryDx=0;entryDy=0;" edge="1" parent="BqG8JKaF9QAYTt6Hr9BY-1" source="6Vs1qo5ZA1MxRJNfFTYf-3" target="6Vs1qo5ZA1MxRJNfFTYf-6">
                    <mxGeometry relative="1" as="geometry"/>
                </mxCell>
                <mxCell id="6Vs1qo5ZA1MxRJNfFTYf-1" style="edgeStyle=orthogonalEdgeStyle;rounded=0;orthogonalLoop=1;jettySize=auto;html=1;" edge="1" parent="BqG8JKaF9QAYTt6Hr9BY-1" source="6Vs1qo5ZA1MxRJNfFTYf-3" target="6Vs1qo5ZA1MxRJNfFTYf-5">
                    <mxGeometry relative="1" as="geometry"/>
                </mxCell>
                <mxCell id="6Vs1qo5ZA1MxRJNfFTYf-2" style="edgeStyle=orthogonalEdgeStyle;rounded=0;orthogonalLoop=1;jettySize=auto;html=1;entryX=0;entryY=0.5;entryDx=0;entryDy=0;" edge="1" parent="BqG8JKaF9QAYTt6Hr9BY-1" source="6Vs1qo5ZA1MxRJNfFTYf-3" target="6Vs1qo5ZA1MxRJNfFTYf-4">
                    <mxGeometry relative="1" as="geometry"/>
                </mxCell>
                <mxCell id="6Vs1qo5ZA1MxRJNfFTYf-9" style="edgeStyle=orthogonalEdgeStyle;rounded=0;orthogonalLoop=1;jettySize=auto;html=1;entryX=0;entryY=0.5;entryDx=0;entryDy=0;" edge="1" parent="BqG8JKaF9QAYTt6Hr9BY-1" source="6Vs1qo5ZA1MxRJNfFTYf-3" target="6Vs1qo5ZA1MxRJNfFTYf-8">
                    <mxGeometry relative="1" as="geometry"/>
                </mxCell>
                <mxCell id="6Vs1qo5ZA1MxRJNfFTYf-12" style="edgeStyle=orthogonalEdgeStyle;rounded=0;orthogonalLoop=1;jettySize=auto;html=1;entryX=0;entryY=0.5;entryDx=0;entryDy=0;" edge="1" parent="BqG8JKaF9QAYTt6Hr9BY-1" source="6Vs1qo5ZA1MxRJNfFTYf-3" target="6Vs1qo5ZA1MxRJNfFTYf-7">
                    <mxGeometry relative="1" as="geometry"/>
                </mxCell>
                <mxCell id="6Vs1qo5ZA1MxRJNfFTYf-3" value="软件架构" style="rounded=1;whiteSpace=wrap;html=1;" vertex="1" parent="BqG8JKaF9QAYTt6Hr9BY-1">
                    <mxGeometry x="100" y="470" width="120" height="60" as="geometry"/>
                </mxCell>
                <mxCell id="6Vs1qo5ZA1MxRJNfFTYf-4" value="基于架构的软件维护与演化" style="rounded=1;whiteSpace=wrap;html=1;" vertex="1" parent="BqG8JKaF9QAYTt6Hr9BY-1">
                    <mxGeometry x="280" y="570" width="320" height="60" as="geometry"/>
                </mxCell>
                <mxCell id="6Vs1qo5ZA1MxRJNfFTYf-5" value="软件架构的分析与验证" style="rounded=1;whiteSpace=wrap;html=1;" vertex="1" parent="BqG8JKaF9QAYTt6Hr9BY-1">
                    <mxGeometry x="280" y="470" width="320" height="60" as="geometry"/>
                </mxCell>
                <mxCell id="6Vs1qo5ZA1MxRJNfFTYf-6" value="软件架构的描述与表示" style="rounded=1;whiteSpace=wrap;html=1;" vertex="1" parent="BqG8JKaF9QAYTt6Hr9BY-1">
                    <mxGeometry x="280" y="360" width="320" height="60" as="geometry"/>
                </mxCell>
                <mxCell id="6Vs1qo5ZA1MxRJNfFTYf-7" value="软件架构的可靠性" style="rounded=1;whiteSpace=wrap;html=1;" vertex="1" parent="BqG8JKaF9QAYTt6Hr9BY-1">
                    <mxGeometry x="280" y="680" width="320" height="60" as="geometry"/>
                </mxCell>
                <mxCell id="6Vs1qo5ZA1MxRJNfFTYf-8" value="软件架构描述语言" style="rounded=1;whiteSpace=wrap;html=1;" vertex="1" parent="BqG8JKaF9QAYTt6Hr9BY-1">
                    <mxGeometry x="280" y="270" width="320" height="60" as="geometry"/>
                </mxCell>
            </root>
        </mxGraphModel>
    </diagram>
    <diagram id="VMx8hQefgha2cywR5gmB" name="系统架构师">
        <mxGraphModel dx="2590" dy="1160" grid="1" gridSize="10" guides="1" tooltips="1" connect="1" arrows="1" fold="1" page="1" pageScale="1" pageWidth="850" pageHeight="1100" math="0" shadow="0">
            <root>
                <mxCell id="D6K7rUNQ_35-cnONnwiE-0"/>
                <mxCell id="D6K7rUNQ_35-cnONnwiE-1" parent="D6K7rUNQ_35-cnONnwiE-0"/>
                <mxCell id="_HDfPdq5q7uhjTMQkOUn-2" style="edgeStyle=orthogonalEdgeStyle;rounded=0;orthogonalLoop=1;jettySize=auto;html=1;entryX=0;entryY=0.5;entryDx=0;entryDy=0;" edge="1" parent="D6K7rUNQ_35-cnONnwiE-1" source="qw2ujCj_bFwvkbIWv0Ih-0" target="_HDfPdq5q7uhjTMQkOUn-0">
                    <mxGeometry relative="1" as="geometry"/>
                </mxCell>
                <mxCell id="_HDfPdq5q7uhjTMQkOUn-3" style="edgeStyle=orthogonalEdgeStyle;rounded=0;orthogonalLoop=1;jettySize=auto;html=1;entryX=0;entryY=0.5;entryDx=0;entryDy=0;" edge="1" parent="D6K7rUNQ_35-cnONnwiE-1" source="qw2ujCj_bFwvkbIWv0Ih-0" target="_HDfPdq5q7uhjTMQkOUn-1">
                    <mxGeometry relative="1" as="geometry"/>
                </mxCell>
                <mxCell id="qw2ujCj_bFwvkbIWv0Ih-0" value="系统架构师" style="rounded=1;whiteSpace=wrap;html=1;" vertex="1" parent="D6K7rUNQ_35-cnONnwiE-1">
                    <mxGeometry x="130" y="520" width="120" height="60" as="geometry"/>
                </mxCell>
                <mxCell id="_HDfPdq5q7uhjTMQkOUn-0" value="技术素质" style="rounded=1;whiteSpace=wrap;html=1;" vertex="1" parent="D6K7rUNQ_35-cnONnwiE-1">
                    <mxGeometry x="300" y="340" width="120" height="60" as="geometry"/>
                </mxCell>
                <mxCell id="_HDfPdq5q7uhjTMQkOUn-1" value="管理素质" style="rounded=1;whiteSpace=wrap;html=1;" vertex="1" parent="D6K7rUNQ_35-cnONnwiE-1">
                    <mxGeometry x="300" y="640" width="120" height="60" as="geometry"/>
                </mxCell>
            </root>
        </mxGraphModel>
    </diagram>
</mxfile>